{
  "accessors": [
    {
      "bufferView": 2,
      "componentType": 5126,
      "count": 10539,
      "max": [
        6.392267227172852,
        8.310853004455566,
        3.6465189456939697
      ],
      "min": [
        3.158276081085205,
        -11.209052085876465,
        1.229457974433899
      ],
      "type": "VEC3"
    },
    {
      "bufferView": 2,
      "byteOffset": 126468,
      "componentType": 5126,
      "count": 10539,
      "max": [
        0.9999498724937439,
        0.9999794960021973,
        0.999850332736969
      ],
      "min": [
        -0.9999963641166687,
        -0.9999901056289673,
        -0.999963641166687
      ],
      "type": "VEC3"
    },
    {
      "bufferView": 3,
      "componentType": 5126,
      "count": 10539,
      "max": [
        0.9998944997787476,
        0.9999978542327881,
        0.9999645352363586,
        1.0
      ],
      "min": [
        -0.9997323155403137,
        -0.9931883811950684,
        -0.9999434947967529,
        -1.0
      ],
      "type": "VEC4"
    },
    {
      "bufferView": 1,
      "componentType": 5126,
      "count": 10539,
      "max": [
        0.6626369953155518,
        0.9999989867210388
      ],
      "min": [
        0.0,
        0.0
      ],
      "type": "VEC2"
    },
    {
      "bufferView": 0,
      "componentType": 5125,
      "count": 60054,
      "type": "SCALAR"
    },
    {
      "bufferView": 2,
      "byteOffset": 252936,
      "componentType": 5126,
      "count": 65532,
      "max": [
        5.425374984741211,
        1.3690409660339355,
        3.1195449829101563
      ],
      "min": [
        -3.8659629821777344,
        -13.204107284545898,
        -4.930616855621338
      ],
      "type": "VEC3"
    },
    {
      "bufferView": 2,
      "byteOffset": 1039320,
      "componentType": 5126,
      "count": 65532,
      "max": [
        0.9998343586921692,
        0.9999292492866516,
        1.0
      ],
      "min": [
        -0.9999472498893738,
        -0.9999729990959167,
        -0.9999793767929077
      ],
      "type": "VEC3"
    },
    {
      "bufferView": 3,
      "byteOffset": 168624,
      "componentType": 5126,
      "count": 65532,
      "max": [
        0.9999536871910095,
        0.9998918175697327,
        0.9999853372573853,
        1.0
      ],
      "min": [
        -0.9999357461929321,
        -0.9999558329582214,
        -0.999861478805542,
        -1.0
      ],
      "type": "VEC4"
    },
    {
      "bufferView": 1,
      "byteOffset": 84312,
      "componentType": 5126,
      "count": 65532,
      "max": [
        0.6803060173988342,
        0.9959610104560852
      ],
      "min": [
        0.0,
        0.0
      ],
      "type": "VEC2"
    },
    {
      "bufferView": 0,
      "byteOffset": 240216,
      "componentType": 5125,
      "count": 323289,
      "type": "SCALAR"
    },
    {
      "bufferView": 2,
      "byteOffset": 1825704,
      "componentType": 5126,
      "count": 60927,
      "max": [
        5.425374984741211,
        1.3652629852294922,
        2.9751598834991455
      ],
      "min": [
        -3.928663969039917,
        -12.743276596069336,
        -4.930331230163574
      ],
      "type": "VEC3"
    },
    {
      "bufferView": 2,
      "byteOffset": 2556828,
      "componentType": 5126,
      "count": 60927,
      "max": [
        0.9999637603759766,
        0.9998826384544373,
        0.999984860420227
      ],
      "min": [
        -0.9999993443489075,
        -0.9999405145645142,
        -0.9999341368675232
      ],
      "type": "VEC3"
    },
    {
      "bufferView": 3,
      "byteOffset": 1217136,
      "componentType": 5126,
      "count": 60927,
      "max": [
        0.9999935030937195,
        0.9999958872795105,
        0.9999853372573853,
        1.0
      ],
      "min": [
        -0.999829888343811,
        -0.9999837875366211,
        -0.999992311000824,
        -1.0
      ],
      "type": "VEC4"
    },
    {
      "bufferView": 1,
      "byteOffset": 608568,
      "componentType": 5126,
      "count": 60927,
      "max": [
        0.7186800241470337,
        0.9999989867210388
      ],
      "min": [
        0.0,
        0.0
      ],
      "type": "VEC2"
    },
    {
      "bufferView": 0,
      "byteOffset": 1533372,
      "componentType": 5125,
      "count": 288237,
      "type": "SCALAR"
    },
    {
      "bufferView": 2,
      "byteOffset": 3287952,
      "componentType": 5126,
      "count": 4901,
      "max": [
        0.8783919811248779,
        0.7094550132751465,
        0.6625000238418579
      ],
      "min": [
        -0.8786190152168274,
        0.08582200109958649,
        -0.24137899279594421
      ],
      "type": "VEC3"
    },
    {
      "bufferView": 2,
      "byteOffset": 3346764,
      "componentType": 5126,
      "count": 4901,
      "max": [
        0.9999315738677979,
        0.9995707869529724,
        0.9978758692741394
      ],
      "min": [
        -0.9995865225791931,
        -0.9998824596405029,
        -0.9992470145225525
      ],
      "type": "VEC3"
    },
    {
      "bufferView": 3,
      "byteOffset": 2191968,
      "componentType": 5126,
      "count": 4901,
      "max": [
        0.9998603463172913,
        0.9975974559783936,
        0.9915165305137634,
        1.0
      ],
      "min": [
        -0.9999152421951294,
        -0.999383807182312,
        -0.9998705387115479,
        1.0
      ],
      "type": "VEC4"
    },
    {
      "bufferView": 1,
      "byteOffset": 1095984,
      "componentType": 5126,
      "count": 4901,
      "max": [
        0.9987289905548096,
        0.9999989867210388
      ],
      "min": [
        0.0,
        0.0
      ],
      "type": "VEC2"
    },
    {
      "bufferView": 0,
      "byteOffset": 2686320,
      "componentType": 5125,
      "count": 26562,
      "type": "SCALAR"
    },
    {
      "bufferView": 2,
      "byteOffset": 3405576,
      "componentType": 5126,
      "count": 28141,
      "max": [
        0.7041929960250854,
        -0.13819800317287445,
        1.2375839948654175
      ],
      "min": [
        -0.7050579786300659,
        -0.6336629986763,
        -0.06255699694156647
      ],
      "type": "VEC3"
    },
    {
      "bufferView": 2,
      "byteOffset": 3743268,
      "componentType": 5126,
      "count": 28141,
      "max": [
        0.999948263168335,
        0.9998062252998352,
        0.9998723864555359
      ],
      "min": [
        -0.9999982118606567,
        -0.9998091459274292,
        -0.9999852180480957
      ],
      "type": "VEC3"
    },
    {
      "bufferView": 3,
      "byteOffset": 2270384,
      "componentType": 5126,
      "count": 28141,
      "max": [
        0.9999327659606934,
        0.9999842047691345,
        0.9999269247055054,
        1.0
      ],
      "min": [
        -0.9998915791511536,
        -0.9998008012771606,
        -0.9999449849128723,
        -1.0
      ],
      "type": "VEC4"
    },
    {
      "bufferView": 1,
      "byteOffset": 1135192,
      "componentType": 5126,
      "count": 28141,
      "max": [
        0.9995999932289124,
        0.9999989867210388
      ],
      "min": [
        0.0,
        0.0
      ],
      "type": "VEC2"
    },
    {
      "bufferView": 0,
      "byteOffset": 2792568,
      "componentType": 5125,
      "count": 156876,
      "type": "SCALAR"
    }
  ],
  "asset": {
    "extras": {
      "author": "paulincalmejane.lya (https://sketchfab.com/paulincalmejane.lya)",
      "license": "CC-BY-4.0 (http://creativecommons.org/licenses/by/4.0/)",
      "source": "https://sketchfab.com/3d-models/shark-a2e4785b44d74047b044ebcc9950baec",
      "title": "shark"
    },
    "generator": "Sketchfab-12.68.0",
    "version": "2.0"
  },
  "bufferViews": [
    {
      "buffer": 0,
      "byteLength": 3420072,
      "name": "floatBufferViews",
      "target": 34963
    },
    {
      "buffer": 0,
      "byteLength": 1360320,
      "byteOffset": 3420072,
      "byteStride": 8,
      "name": "floatBufferViews",
      "target": 34962
    },
    {
      "buffer": 0,
      "byteLength": 4080960,
      "byteOffset": 4780392,
      "byteStride": 12,
      "name": "floatBufferViews",
      "target": 34962
    },
    {
      "buffer": 0,
      "byteLength": 2720640,
      "byteOffset": 8861352,
      "byteStride": 16,
      "name": "floatBufferViews",
      "target": 34962
    }
  ],
  "buffers": [
    {
      "byteLength": 11581992,
      "uri": "scene.bin"
    }
  ],
  "images": [
    {
      "uri": "textures/shark_final2_baseColor.jpeg"
    },
    {
      "uri": "textures/shark_final2_metallicRoughness.png"
    },
    {
      "uri": "textures/shark_final2_normal.png"
    },
    {
      "uri": "textures/PM3D_Sphere3D1_2_baseColor.jpeg"
    },
    {
      "uri": "textures/PM3D_Sphere3D1_2_metallicRoughness.png"
    },
    {
      "uri": "textures/PM3D_Sphere3D1_2_normal.png"
    },
    {
      "uri": "textures/material_baseColor.jpeg"
    },
    {
      "uri": "textures/material_metallicRoughness.png"
    },
    {
      "uri": "textures/material_emissive.jpeg"
    },
    {
      "uri": "textures/material_normal.png"
    },
    {
      "uri": "textures/PM3D_Cylinder3D2_baseColor.jpeg"
    },
    {
      "uri": "textures/PM3D_Cylinder3D2_metallicRoughness.png"
    },
    {
      "uri": "textures/PM3D_Cylinder3D2_normal.png"
    }
  ],
  "materials": [
    {
      "doubleSided": true,
      "name": "shark_final2",
      "normalTexture": {
        "index": 2
      },
      "occlusionTexture": {
        "index": 1
      },
      "pbrMetallicRoughness": {
        "baseColorTexture": {
          "index": 0
        },
        "metallicRoughnessTexture": {
          "index": 1
        }
      }
    },
    {
      "doubleSided": true,
      "emissiveFactor": [
        0.20626596085964413,
        0.5030626831369516,
        1.0
      ],
      "name": "PM3D_Sphere3D1_2",
      "normalTexture": {
        "index": 5
      },
      "occlusionTexture": {
        "index": 4
      },
      "pbrMetallicRoughness": {
        "baseColorTexture": {
          "index": 3
        },
        "metallicRoughnessTexture": {
          "index": 4
        }
      }
    },
    {
      "doubleSided": true,
      "emissiveFactor": [
        1.0,
        1.0,
        1.0
      ],
      "emissiveTexture": {
        "index": 8
      },
      "name": "material",
      "normalTexture": {
        "index": 9
      },
      "occlusionTexture": {
        "index": 7
      },
      "pbrMetallicRoughness": {
        "baseColorTexture": {
          "index": 6
        },
        "metallicRoughnessTexture": {
          "index": 7
        }
      }
    },
    {
      "doubleSided": true,
      "name": "PM3D_Cylinder3D2",
      "normalTexture": {
        "index": 12
      },
      "occlusionTexture": {
        "index": 11
      },
      "pbrMetallicRoughness": {
        "baseColorTexture": {
          "index": 10
        },
        "metallicFactor": 0.3057187068687716,
        "metallicRoughnessTexture": {
          "index": 11
        },
        "roughnessFactor": 0.9015756768752774
      }
    }
  ],
  "meshes": [
    {
      "name": "defaultMaterial",
      "primitives": [
        {
          "attributes": {
            "NORMAL": 1,
            "POSITION": 0,
            "TANGENT": 2,
            "TEXCOORD_0": 3
          },
          "indices": 4,
          "material": 3,
          "mode": 4
        }
      ]
    },
    {
      "name": "defaultMaterial",
      "primitives": [
        {
          "attributes": {
            "NORMAL": 6,
            "POSITION": 5,
            "TANGENT": 7,
            "TEXCOORD_0": 8
          },
          "indices": 9,
          "material": 2,
          "mode": 4
        }
      ]
    },
    {
      "name": "defaultMaterial",
      "primitives": [
        {
          "attributes": {
            "NORMAL": 11,
            "POSITION": 10,
            "TANGENT": 12,
            "TEXCOORD_0": 13
          },
          "indices": 14,
          "material": 2,
          "mode": 4
        }
      ]
    },
    {
      "name": "defaultMaterial",
      "primitives": [
        {
          "attributes": {
            "NORMAL": 16,
            "POSITION": 15,
            "TANGENT": 17,
            "TEXCOORD_0": 18
          },
          "indices": 19,
          "material": 1,
          "mode": 4
        }
      ]
    },
    {
      "name": "defaultMaterial",
      "primitives": [
        {
          "attributes": {
            "NORMAL": 21,
            "POSITION": 20,
            "TANGENT": 22,
            "TEXCOORD_0": 23
          },
          "indices": 24,
          "material": 0,
          "mode": 4
        }
      ]
    }
  ],
  "nodes": [
    {
      "children": [
        1
      ],
      "matrix": [
        1.0,
        0.0,
        0.0,
        0.0,
        0.0,
        2.220446049250313e-16,
        -1.0,
        0.0,
        0.0,
        1.0,
        2.220446049250313e-16,
        0.0,
        0.0,
        0.0,
        0.0,
        1.0
      ],
      "name": "Sketchfab_model"
    },
    {
      "children": [
        2,
        4,
        7,
        9
      ],
      "matrix": [
        1.0,
        0.0,
        0.0,
        0.0,
        0.0,
        -4.371139006309477e-08,
        0.999999999999999,
        0.0,
        0.0,
        -0.999999999999999,
        -4.371139006309477e-08,
        0.0,
        0.0,
        0.0,
        0.0,
        1.0
      ],
      "name": "Collada visual scene group"
    },
    {
      "children": [
        3
      ],
      "name": "PM3D_Cylinder3D2"
    },
    {
      "mesh": 0,
      "name": "defaultMaterial"
    },
    {
      "children": [
        5,
        6
      ],
      "name": "HP2"
    },
    {
      "mesh": 1,
      "name": "defaultMaterial"
    },
    {
      "mesh": 2,
      "name": "defaultMaterial"
    },
    {
      "children": [
        8
      ],
      "name": "PM3D_Sphere3D1_2"
    },
    {
      "mesh": 3,
      "name": "defaultMaterial"
    },
    {
      "children": [
        10
      ],
      "name": "shark_final2"
    },
    {
      "mesh": 4,
      "name": "defaultMaterial"
    }
  ],
  "samplers": [
    {
      "magFilter": 9729,
      "minFilter": 9987,
      "wrapS": 10497,
      "wrapT": 10497
    }
  ],
  "scene": 0,
  "scenes": [
    {
      "name": "Sketchfab_Scene",
      "nodes": [
        0
      ]
    }
  ],
  "textures": [
    {
      "sampler": 0,
      "source": 0
    },
    {
      "sampler": 0,
      "source": 1
    },
    {
      "sampler": 0,
      "source": 2
    },
    {
      "sampler": 0,
      "source": 3
    },
    {
      "sampler": 0,
      "source": 4
    },
    {
      "sampler": 0,
      "source": 5
    },
    {
      "sampler": 0,
      "source": 6
    },
    {
      "sampler": 0,
      "source": 7
    },
    {
      "sampler": 0,
      "source": 8
    },
    {
      "sampler": 0,
      "source": 9
    },
    {
      "sampler": 0,
      "source": 10
    },
    {
      "sampler": 0,
      "source": 11
    },
    {
      "sampler": 0,
      "source": 12
    }
  ]
}
