{
  "accessors": [
    {
      "bufferView": 3,
      "componentType": 5126,
      "count": 12,
      "max": [
        15.781599044799805,
        14.610005378723145,
        12.521660804748535
      ],
      "min": [
        -15.470600128173828,
        14.562721252441406,
        -11.716099739074707
      ],
      "type": "VEC3"
    },
    {
      "bufferView": 3,
      "byteOffset": 144,
      "componentType": 5126,
      "count": 12,
      "max": [
        0.003774405689910054,
        0.999985933303833,
        0.003736610058695078
      ],
      "min": [
        -0.003971592523157597,
        0.9999852180480957,
        -0.003736610058695078
      ],
      "type": "VEC3"
    },
    {
      "bufferView": 2,
      "componentType": 5126,
      "count": 12,
      "max": [
        0.3167687952518463,
        0.057790741324424744
      ],
      "min": [
        0.3113313913345337,
        0.02400296926498413
      ],
      "type": "VEC2"
    },
    {
      "bufferView": 1,
      "componentType": 5125,
      "count": 24,
      "type": "SCALAR"
    },
    {
      "bufferView": 3,
      "byteOffset": 288,
      "componentType": 5126,
      "count": 9,
      "max": [
        17.074094772338867,
        19.028606414794922,
        12.815004348754883
      ],
      "min": [
        -17.06381607055664,
        13.650951385498047,
        -12.519046783447266
      ],
      "type": "VEC3"
    },
    {
      "bufferView": 3,
      "byteOffset": 396,
      "componentType": 5126,
      "count": 9,
      "max": [
        0.16968056559562683,
        0.9986384510993958,
        0.19862499833106995
      ],
      "min": [
        -0.1608041524887085,
        0.9658632874488831,
        -0.09568838030099869
      ],
      "type": "VEC3"
    },
    {
      "bufferView": 2,
      "byteOffset": 96,
      "componentType": 5126,
      "count": 9,
      "max": [
        0.2953019142150879,
        0.19569826126098633
      ],
      "min": [
        0.014232777059078217,
        0.010474536567926407
      ],
      "type": "VEC2"
    },
    {
      "bufferView": 1,
      "byteOffset": 96,
      "componentType": 5125,
      "count": 24,
      "type": "SCALAR"
    },
    {
      "bufferView": 3,
      "byteOffset": 504,
      "componentType": 5126,
      "count": 9,
      "max": [
        15.870499610900879,
        15.264627456665039,
        11.997599601745605
      ],
      "min": [
        -15.452400207519531,
        9.696765899658203,
        -11.3927001953125
      ],
      "type": "VEC3"
    },
    {
      "bufferView": 3,
      "byteOffset": 612,
      "componentType": 5126,
      "count": 9,
      "max": [
        0.043781593441963196,
        0.9983254671096802,
        0.30894917249679565
      ],
      "min": [
        -0.27094489336013794,
        0.9452694058418274,
        -0.12343096733093262
      ],
      "type": "VEC3"
    },
    {
      "bufferView": 2,
      "byteOffset": 168,
      "componentType": 5126,
      "count": 9,
      "max": [
        0.223363995552063,
        0.3653762936592102
      ],
      "min": [
        0.009276509284973145,
        0.21791979670524597
      ],
      "type": "VEC2"
    },
    {
      "bufferView": 1,
      "byteOffset": 192,
      "componentType": 5125,
      "count": 24,
      "type": "SCALAR"
    },
    {
      "bufferView": 3,
      "byteOffset": 720,
      "componentType": 5126,
      "count": 9,
      "max": [
        17.074094772338867,
        27.826332092285156,
        12.92228889465332
      ],
      "min": [
        -17.06381607055664,
        21.85961151123047,
        -11.86424446105957
      ],
      "type": "VEC3"
    },
    {
      "bufferView": 3,
      "byteOffset": 828,
      "componentType": 5126,
      "count": 9,
      "max": [
        0.16968059539794922,
        -0.9546073079109192,
        0.251749724149704
      ],
      "min": [
        -0.16080418229103088,
        -0.9991370439529419,
        -0.04129065200686455
      ],
      "type": "VEC3"
    },
    {
      "bufferView": 2,
      "byteOffset": 240,
      "componentType": 5126,
      "count": 9,
      "max": [
        0.2953019142150879,
        0.19569826126098633
      ],
      "min": [
        0.014232777059078217,
        0.010474536567926407
      ],
      "type": "VEC2"
    },
    {
      "bufferView": 1,
      "byteOffset": 288,
      "componentType": 5125,
      "count": 24,
      "type": "SCALAR"
    },
    {
      "bufferView": 3,
      "byteOffset": 936,
      "componentType": 5126,
      "count": 398,
      "max": [
        20.448999404907227,
        38.104061126708984,
        20.920352935791016
      ],
      "min": [
        -20.638700485229492,
        18.22317886352539,
        -17.472551345825195
      ],
      "type": "VEC3"
    },
    {
      "bufferView": 3,
      "byteOffset": 5712,
      "componentType": 5126,
      "count": 398,
      "max": [
        1.0,
        1.0,
        1.0
      ],
      "min": [
        -1.0,
        -1.0,
        -1.0
      ],
      "type": "VEC3"
    },
    {
      "bufferView": 2,
      "byteOffset": 312,
      "componentType": 5126,
      "count": 398,
      "max": [
        0.9990785121917725,
        0.8202004432678223
      ],
      "min": [
        0.004592418670654297,
        0.18305142223834991
      ],
      "type": "VEC2"
    },
    {
      "bufferView": 1,
      "byteOffset": 384,
      "componentType": 5125,
      "count": 831,
      "type": "SCALAR"
    },
    {
      "bufferView": 3,
      "byteOffset": 10488,
      "componentType": 5126,
      "count": 619,
      "max": [
        24.077800750732422,
        21.178600311279297,
        20.571590423583984
      ],
      "min": [
        -24.458065032958984,
        -0.48642754554748535,
        -18.959016799926758
      ],
      "type": "VEC3"
    },
    {
      "bufferView": 3,
      "byteOffset": 17916,
      "componentType": 5126,
      "count": 619,
      "max": [
        1.0,
        1.0,
        1.0
      ],
      "min": [
        -1.0,
        -1.0,
        -1.0
      ],
      "type": "VEC3"
    },
    {
      "bufferView": 2,
      "byteOffset": 3496,
      "componentType": 5126,
      "count": 619,
      "max": [
        0.9978504180908203,
        0.9960108399391174
      ],
      "min": [
        0.0031108856201171875,
        0.16882744431495667
      ],
      "type": "VEC2"
    },
    {
      "bufferView": 1,
      "byteOffset": 3708,
      "componentType": 5125,
      "count": 1620,
      "type": "SCALAR"
    },
    {
      "bufferView": 5,
      "componentType": 5126,
      "count": 5,
      "max": [
        1.0,
        0.0,
        0.0,
        0.0,
        0.0,
        1.0,
        0.0,
        0.0,
        0.0,
        0.0,
        1.0,
        0.0,
        0.0,
        0.0,
        15.297478675842285,
        1.0
      ],
      "min": [
        1.0,
        0.0,
        0.0,
        0.0,
        0.0,
        1.0,
        0.0,
        0.0,
        0.0,
        0.0,
        1.0,
        0.0,
        0.0,
        -34.06036376953125,
        -0.574376106262207,
        1.0
      ],
      "type": "MAT4"
    },
    {
      "bufferView": 0,
      "componentType": 5123,
      "count": 12,
      "type": "VEC4"
    },
    {
      "bufferView": 4,
      "componentType": 5126,
      "count": 12,
      "max": [
        0.6666666865348816,
        0.3333333432674408,
        0.0,
        0.0
      ],
      "min": [
        0.6666666865348816,
        0.3333333432674408,
        0.0,
        0.0
      ],
      "type": "VEC4"
    },
    {
      "bufferView": 0,
      "byteOffset": 96,
      "componentType": 5123,
      "count": 9,
      "type": "VEC4"
    },
    {
      "bufferView": 4,
      "byteOffset": 192,
      "componentType": 5126,
      "count": 9,
      "max": [
        1.0,
        0.0,
        0.0,
        0.0
      ],
      "min": [
        1.0,
        0.0,
        0.0,
        0.0
      ],
      "type": "VEC4"
    },
    {
      "bufferView": 0,
      "byteOffset": 168,
      "componentType": 5123,
      "count": 9,
      "type": "VEC4"
    },
    {
      "bufferView": 4,
      "byteOffset": 336,
      "componentType": 5126,
      "count": 9,
      "max": [
        0.6666666865348816,
        0.3333333432674408,
        0.0,
        0.0
      ],
      "min": [
        0.6666666865348816,
        0.3333333432674408,
        0.0,
        0.0
      ],
      "type": "VEC4"
    },
    {
      "bufferView": 0,
      "byteOffset": 240,
      "componentType": 5123,
      "count": 9,
      "type": "VEC4"
    },
    {
      "bufferView": 4,
      "byteOffset": 480,
      "componentType": 5126,
      "count": 9,
      "max": [
        1.0,
        0.4117647111415863,
        0.0,
        0.0
      ],
      "min": [
        0.5882353186607361,
        0.0,
        0.0,
        0.0
      ],
      "type": "VEC4"
    },
    {
      "bufferView": 0,
      "byteOffset": 312,
      "componentType": 5123,
      "count": 398,
      "type": "VEC4"
    },
    {
      "bufferView": 4,
      "byteOffset": 624,
      "componentType": 5126,
      "count": 398,
      "max": [
        1.0,
        0.4117647111415863,
        0.0,
        0.0
      ],
      "min": [
        0.5882353186607361,
        0.0,
        0.0,
        0.0
      ],
      "type": "VEC4"
    },
    {
      "bufferView": 0,
      "byteOffset": 3496,
      "componentType": 5123,
      "count": 619,
      "type": "VEC4"
    },
    {
      "bufferView": 4,
      "byteOffset": 6992,
      "componentType": 5126,
      "count": 619,
      "max": [
        1.0,
        0.5,
        0.0,
        0.0
      ],
      "min": [
        0.5,
        0.0,
        0.0,
        0.0
      ],
      "type": "VEC4"
    },
    {
      "bufferView": 6,
      "componentType": 5126,
      "count": 5,
      "max": [
        0.20000000298023224
      ],
      "min": [
        0.03333333507180214
      ],
      "type": "SCALAR"
    },
    {
      "bufferView": 7,
      "componentType": 5126,
      "count": 5,
      "max": [
        0.0,
        13.045862197875977,
        29.822603225708008
      ],
      "min": [
        0.0,
        1.7486835718154907,
        15.871854782104492
      ],
      "type": "VEC3"
    },
    {
      "bufferView": 6,
      "byteOffset": 20,
      "componentType": 5126,
      "count": 6,
      "max": [
        0.20000000298023224
      ],
      "min": [
        0.03333333507180214
      ],
      "type": "SCALAR"
    },
    {
      "bufferView": 8,
      "componentType": 5126,
      "count": 6,
      "max": [
        0.4667399227619171,
        0.0,
        0.0,
        1.0
      ],
      "min": [
        0.0,
        0.0,
        0.0,
        0.884394645690918
      ],
      "type": "VEC4"
    },
    {
      "bufferView": 6,
      "byteOffset": 44,
      "componentType": 5126,
      "count": 8,
      "max": [
        1.2666666507720947
      ],
      "min": [
        0.03333333507180214
      ],
      "type": "SCALAR"
    },
    {
      "bufferView": 7,
      "byteOffset": 60,
      "componentType": 5126,
      "count": 8,
      "max": [
        0.0,
        3.552713678800501e-15,
        -15.297478675842285
      ],
      "min": [
        0.0,
        -3.552713678800501e-15,
        -15.297478675842285
      ],
      "type": "VEC3"
    },
    {
      "bufferView": 6,
      "byteOffset": 76,
      "componentType": 5126,
      "count": 31,
      "max": [
        1.2666666507720947
      ],
      "min": [
        0.03333333507180214
      ],
      "type": "SCALAR"
    },
    {
      "bufferView": 8,
      "byteOffset": 96,
      "componentType": 5126,
      "count": 31,
      "max": [
        0.9997555613517761,
        0.0,
        0.0,
        1.0
      ],
      "min": [
        -0.8199307322502136,
        0.0,
        0.0,
        -0.43432748317718506
      ],
      "type": "VEC4"
    },
    {
      "bufferView": 6,
      "byteOffset": 200,
      "componentType": 5126,
      "count": 8,
      "max": [
        0.2666666805744171
      ],
      "min": [
        0.03333333507180214
      ],
      "type": "SCALAR"
    },
    {
      "bufferView": 7,
      "byteOffset": 156,
      "componentType": 5126,
      "count": 8,
      "max": [
        0.0,
        21.31055450439453,
        0.0
      ],
      "min": [
        0.0,
        21.01449966430664,
        -0.7780588269233704
      ],
      "type": "VEC3"
    },
    {
      "bufferView": 6,
      "byteOffset": 232,
      "componentType": 5126,
      "count": 8,
      "max": [
        0.2666666805744171
      ],
      "min": [
        0.03333333507180214
      ],
      "type": "SCALAR"
    },
    {
      "bufferView": 8,
      "byteOffset": 592,
      "componentType": 5126,
      "count": 8,
      "max": [
        0.09506284445524216,
        0.0,
        0.0,
        1.0
      ],
      "min": [
        -0.03384071961045265,
        0.0,
        0.0,
        0.9954712986946106
      ],
      "type": "VEC4"
    },
    {
      "bufferView": 6,
      "byteOffset": 264,
      "componentType": 5126,
      "count": 10,
      "max": [
        2.0
      ],
      "min": [
        0.03333333507180214
      ],
      "type": "SCALAR"
    },
    {
      "bufferView": 7,
      "byteOffset": 252,
      "componentType": 5126,
      "count": 10,
      "max": [
        0.0,
        3.3743648529052734,
        0.0
      ],
      "min": [
        0.0,
        0.0,
        0.0
      ],
      "type": "VEC3"
    },
    {
      "bufferView": 6,
      "byteOffset": 304,
      "componentType": 5126,
      "count": 10,
      "max": [
        2.0
      ],
      "min": [
        0.03333333507180214
      ],
      "type": "SCALAR"
    },
    {
      "bufferView": 8,
      "byteOffset": 720,
      "componentType": 5126,
      "count": 10,
      "max": [
        0.0815112292766571,
        0.0,
        0.0,
        1.0
      ],
      "min": [
        -0.08075280487537384,
        0.0,
        0.0,
        0.9966724514961243
      ],
      "type": "VEC4"
    }
  ],
  "animations": [
    {
      "channels": [
        {
          "sampler": 0,
          "target": {
            "node": 15,
            "path": "translation"
          }
        },
        {
          "sampler": 1,
          "target": {
            "node": 15,
            "path": "rotation"
          }
        },
        {
          "sampler": 2,
          "target": {
            "node": 14,
            "path": "translation"
          }
        },
        {
          "sampler": 3,
          "target": {
            "node": 14,
            "path": "rotation"
          }
        },
        {
          "sampler": 4,
          "target": {
            "node": 13,
            "path": "translation"
          }
        },
        {
          "sampler": 5,
          "target": {
            "node": 13,
            "path": "rotation"
          }
        },
        {
          "sampler": 6,
          "target": {
            "node": 12,
            "path": "translation"
          }
        },
        {
          "sampler": 7,
          "target": {
            "node": 12,
            "path": "rotation"
          }
        }
      ],
      "name": "Take 001",
      "samplers": [
        {
          "input": 37,
          "interpolation": "LINEAR",
          "output": 38
        },
        {
          "input": 39,
          "interpolation": "LINEAR",
          "output": 40
        },
        {
          "input": 41,
          "interpolation": "LINEAR",
          "output": 42
        },
        {
          "input": 43,
          "interpolation": "LINEAR",
          "output": 44
        },
        {
          "input": 45,
          "interpolation": "LINEAR",
          "output": 46
        },
        {
          "input": 47,
          "interpolation": "LINEAR",
          "output": 48
        },
        {
          "input": 49,
          "interpolation": "LINEAR",
          "output": 50
        },
        {
          "input": 51,
          "interpolation": "LINEAR",
          "output": 52
        }
      ]
    }
  ],
  "asset": {
    "extras": {
      "author": "BitGem (https://sketchfab.com/bitgem)",
      "license": "SKETCHFAB Standard (https://sketchfab.com/licenses)",
      "source": "https://sketchfab.com/3d-models/treasure-chest-medium-5ce21176ab5d419f80644f9096a5a2f1",
      "title": "Treasure Chest - Medium"
    },
    "generator": "Sketchfab-14.64.0",
    "version": "2.0"
  },
  "bufferViews": [
    {
      "buffer": 0,
      "byteLength": 8448,
      "byteStride": 8,
      "name": "shortBufferViews",
      "target": 34962
    },
    {
      "buffer": 0,
      "byteLength": 10188,
      "byteOffset": 8448,
      "name": "floatBufferViews",
      "target": 34963
    },
    {
      "buffer": 0,
      "byteLength": 8448,
      "byteOffset": 18636,
      "byteStride": 8,
      "name": "floatBufferViews",
      "target": 34962
    },
    {
      "buffer": 0,
      "byteLength": 25344,
      "byteOffset": 27084,
      "byteStride": 12,
      "name": "floatBufferViews",
      "target": 34962
    },
    {
      "buffer": 0,
      "byteLength": 16896,
      "byteOffset": 52428,
      "byteStride": 16,
      "name": "floatBufferViews",
      "target": 34962
    },
    {
      "buffer": 0,
      "byteLength": 320,
      "byteOffset": 69324,
      "name": "floatBufferViews"
    },
    {
      "buffer": 0,
      "byteLength": 344,
      "byteOffset": 69644,
      "name": "floatBufferViews"
    },
    {
      "buffer": 0,
      "byteLength": 372,
      "byteOffset": 69988,
      "byteStride": 12,
      "name": "floatBufferViews"
    },
    {
      "buffer": 0,
      "byteLength": 880,
      "byteOffset": 70360,
      "byteStride": 16,
      "name": "floatBufferViews"
    }
  ],
  "buffers": [
    {
      "byteLength": 71240,
      "uri": "scene.bin"
    }
  ],
  "extensionsUsed": [
    "KHR_materials_specular"
  ],
  "images": [
    {
      "uri": "textures/treasure_chest_mat_baseColor.png"
    },
    {
      "uri": "textures/treasure_chest_mat_metallicRoughness.png"
    },
    {
      "uri": "textures/treasure_chest_mat_emissive.png"
    },
    {
      "uri": "textures/treasure_chest_mat_specularf0.png"
    }
  ],
  "materials": [
    {
      "alphaMode": "BLEND",
      "doubleSided": true,
      "emissiveFactor": [
        1.0,
        1.0,
        1.0
      ],
      "emissiveTexture": {
        "index": 2
      },
      "extensions": {
        "KHR_materials_specular": {
          "specularColorFactor": [
            1.0,
            1.0,
            1.0
          ],
          "specularFactor": 1.0,
          "specularTexture": {
            "index": 3
          }
        }
      },
      "name": "treasure_chest_mat",
      "pbrMetallicRoughness": {
        "baseColorTexture": {
          "index": 0
        },
        "metallicRoughnessTexture": {
          "index": 1
        }
      }
    }
  ],
  "meshes": [
    {
      "name": "shadow_treasure_chest_mat_0",
      "primitives": [
        {
          "attributes": {
            "JOINTS_0": 25,
            "NORMAL": 1,
            "POSITION": 0,
            "TEXCOORD_0": 2,
            "TEXCOORD_1": 2,
            "WEIGHTS_0": 26
          },
          "indices": 3,
          "material": 0,
          "mode": 4
        }
      ]
    },
    {
      "name": "spiderweb_treasure_chest_mat_0",
      "primitives": [
        {
          "attributes": {
            "JOINTS_0": 27,
            "NORMAL": 5,
            "POSITION": 4,
            "TEXCOORD_0": 6,
            "TEXCOORD_1": 6,
            "WEIGHTS_0": 28
          },
          "indices": 7,
          "material": 0,
          "mode": 4
        }
      ]
    },
    {
      "name": "gold_treasure_chest_mat_0",
      "primitives": [
        {
          "attributes": {
            "JOINTS_0": 29,
            "NORMAL": 9,
            "POSITION": 8,
            "TEXCOORD_0": 10,
            "TEXCOORD_1": 10,
            "WEIGHTS_0": 30
          },
          "indices": 11,
          "material": 0,
          "mode": 4
        }
      ]
    },
    {
      "name": "spiderweb_treasure_chest_mat_0",
      "primitives": [
        {
          "attributes": {
            "JOINTS_0": 31,
            "NORMAL": 13,
            "POSITION": 12,
            "TEXCOORD_0": 14,
            "TEXCOORD_1": 14,
            "WEIGHTS_0": 32
          },
          "indices": 15,
          "material": 0,
          "mode": 4
        }
      ]
    },
    {
      "name": "lid_treasure_chest_mat_0",
      "primitives": [
        {
          "attributes": {
            "JOINTS_0": 33,
            "NORMAL": 17,
            "POSITION": 16,
            "TEXCOORD_0": 18,
            "TEXCOORD_1": 18,
            "WEIGHTS_0": 34
          },
          "indices": 19,
          "material": 0,
          "mode": 4
        }
      ]
    },
    {
      "name": "chest_treasure_chest_mat_0",
      "primitives": [
        {
          "attributes": {
            "JOINTS_0": 35,
            "NORMAL": 21,
            "POSITION": 20,
            "TEXCOORD_0": 22,
            "TEXCOORD_1": 22,
            "WEIGHTS_0": 36
          },
          "indices": 23,
          "material": 0,
          "mode": 4
        }
      ]
    }
  ],
  "nodes": [
    {
      "children": [
        1
      ],
      "matrix": [
        1.0,
        0.0,
        0.0,
        0.0,
        0.0,
        2.220446049250313e-16,
        -1.0,
        0.0,
        0.0,
        1.0,
        2.220446049250313e-16,
        0.0,
        0.0,
        0.0,
        0.0,
        1.0
      ],
      "name": "Sketchfab_model"
    },
    {
      "children": [
        2
      ],
      "matrix": [
        1.0,
        0.0,
        0.0,
        0.0,
        0.0,
        0.0,
        1.0,
        0.0,
        0.0,
        -1.0,
        0.0,
        0.0,
        0.0,
        0.0,
        0.0,
        1.0
      ],
      "name": "357d118642324db88b6b3b89eca09447.fbx"
    },
    {
      "children": [
        3
      ],
      "name": "Object_2"
    },
    {
      "children": [
        4
      ],
      "name": "RootNode"
    },
    {
      "children": [
        5,
        6,
        7,
        8,
        9,
        10,
        11,
        16
      ],
      "name": "Object_4"
    },
    {
      "children": [
        12
      ],
      "name": "_rootJoint"
    },
    {
      "mesh": 0,
      "name": "Object_6",
      "skin": 0
    },
    {
      "mesh": 1,
      "name": "Object_7",
      "skin": 0
    },
    {
      "mesh": 2,
      "name": "Object_8",
      "skin": 0
    },
    {
      "mesh": 3,
      "name": "Object_9",
      "skin": 0
    },
    {
      "mesh": 4,
      "name": "Object_10",
      "skin": 0
    },
    {
      "mesh": 5,
      "name": "Object_11",
      "skin": 0
    },
    {
      "children": [
        13
      ],
      "name": "root_00"
    },
    {
      "children": [
        14
      ],
      "name": "chest_01",
      "translation": [
        0.0,
        21.01449966430664,
        0.0
      ]
    },
    {
      "children": [
        15
      ],
      "name": "hinges_02",
      "translation": [
        0.0,
        0.0,
        -15.297478675842285
      ]
    },
    {
      "name": "lid_03",
      "translation": [
        0.0,
        13.045862197875977,
        15.871854782104492
      ]
    },
    {
      "children": [
        17,
        18,
        19,
        20
      ],
      "name": "chest"
    },
    {
      "name": "shadow"
    },
    {
      "name": "spiderweb"
    },
    {
      "name": "gold"
    },
    {
      "children": [
        21
      ],
      "name": "lid"
    },
    {
      "name": "spiderweb"
    }
  ],
  "samplers": [
    {
      "magFilter": 9729,
      "minFilter": 9987,
      "wrapS": 10497,
      "wrapT": 10497
    }
  ],
  "scene": 0,
  "scenes": [
    {
      "name": "Sketchfab_Scene",
      "nodes": [
        0
      ]
    }
  ],
  "skins": [
    {
      "inverseBindMatrices": 24,
      "joints": [
        5,
        12,
        13,
        14,
        15
      ],
      "skeleton": 5
    }
  ],
  "textures": [
    {
      "sampler": 0,
      "source": 0
    },
    {
      "sampler": 0,
      "source": 1
    },
    {
      "sampler": 0,
      "source": 2
    },
    {
      "sampler": 0,
      "source": 3
    }
  ]
}
