{
  "accessors": [
    {
      "bufferView": 2,
      "componentType": 5126,
      "count": 3039,
      "max": [
        -9.361116409301758,
        30.42673110961914,
        36.15312576293945
      ],
      "min": [
        -23.118606567382813,
        -24.37872886657715,
        13.573850631713867
      ],
      "type": "VEC3"
    },
    {
      "bufferView": 2,
      "byteOffset": 36468,
      "componentType": 5126,
      "count": 3039,
      "max": [
        0.9944822788238525,
        0.9997175335884094,
        0.9997205138206482
      ],
      "min": [
        -0.9999720454216003,
        -0.9985378980636597,
        -0.999596357345581
      ],
      "type": "VEC3"
    },
    {
      "bufferView": 1,
      "componentType": 5126,
      "count": 3039,
      "max": [
        0.9928368330001831,
        0.9963399767875671
      ],
      "min": [
        0.007817570120096207,
        0.009159643203020096
      ],
      "type": "VEC2"
    },
    {
      "bufferView": 0,
      "componentType": 5125,
      "count": 8283,
      "type": "SCALAR"
    },
    {
      "bufferView": 2,
      "byteOffset": 72936,
      "componentType": 5126,
      "count": 5938,
      "max": [
        28.389881134033203,
        18.874340057373047,
        25.532886505126953
      ],
      "min": [
        -24.11031723022461,
        -21.45962905883789,
        -19.73666763305664
      ],
      "type": "VEC3"
    },
    {
      "bufferView": 2,
      "byteOffset": 144192,
      "componentType": 5126,
      "count": 5938,
      "max": [
        0.9999454021453857,
        0.9998869895935059,
        0.9999961853027344
      ],
      "min": [
        -0.9999644160270691,
        -1.0,
        -0.9999960064888
      ],
      "type": "VEC3"
    },
    {
      "bufferView": 3,
      "componentType": 5126,
      "count": 5938,
      "max": [
        1.0,
        0.9975365400314331,
        0.9998744130134583,
        1.0
      ],
      "min": [
        -1.0,
        -0.9999911189079285,
        -0.9995641708374023,
        -1.0
      ],
      "type": "VEC4"
    },
    {
      "bufferView": 1,
      "byteOffset": 24312,
      "componentType": 5126,
      "count": 5938,
      "max": [
        0.9944075345993042,
        0.9887243509292603
      ],
      "min": [
        -0.002368927001953125,
        0.003101855516433716
      ],
      "type": "VEC2"
    },
    {
      "bufferView": 0,
      "byteOffset": 33132,
      "componentType": 5125,
      "count": 27768,
      "type": "SCALAR"
    }
  ],
  "asset": {
    "extras": {
      "author": "Klayzen (https://sketchfab.com/klayzen)",
      "license": "CC-BY-4.0 (http://creativecommons.org/licenses/by/4.0/)",
      "source": "https://sketchfab.com/3d-models/warrior-of-the-ocean-fb11d8bde6734b24a4eb5fe2b6e062e1",
      "title": "Warrior of the Ocean"
    },
    "generator": "Sketchfab-13.74.0",
    "version": "2.0"
  },
  "bufferViews": [
    {
      "buffer": 0,
      "byteLength": 144204,
      "name": "floatBufferViews",
      "target": 34963
    },
    {
      "buffer": 0,
      "byteLength": 71816,
      "byteOffset": 144204,
      "byteStride": 8,
      "name": "floatBufferViews",
      "target": 34962
    },
    {
      "buffer": 0,
      "byteLength": 215448,
      "byteOffset": 216020,
      "byteStride": 12,
      "name": "floatBufferViews",
      "target": 34962
    },
    {
      "buffer": 0,
      "byteLength": 95008,
      "byteOffset": 431468,
      "byteStride": 16,
      "name": "floatBufferViews",
      "target": 34962
    }
  ],
  "buffers": [
    {
      "byteLength": 526476,
      "uri": "scene.bin"
    }
  ],
  "images": [
    {
      "uri": "textures/Weapon_Mat_baseColor.png"
    },
    {
      "uri": "textures/Weapon_Mat_metallicRoughness.png"
    },
    {
      "uri": "textures/Naga_Mat_baseColor.png"
    },
    {
      "uri": "textures/Naga_Mat_metallicRoughness.png"
    },
    {
      "uri": "textures/Naga_Mat_normal.png"
    }
  ],
  "materials": [
    {
      "doubleSided": true,
      "name": "Weapon_Mat",
      "occlusionTexture": {
        "index": 1,
        "strength": 0.40685838280649994
      },
      "pbrMetallicRoughness": {
        "baseColorTexture": {
          "index": 0
        },
        "metallicFactor": 0.33981055942265725,
        "metallicRoughnessTexture": {
          "index": 1
        },
        "roughnessFactor": 0.41295363947775837
      }
    },
    {
      "doubleSided": true,
      "name": "Naga_Mat",
      "normalTexture": {
        "index": 4
      },
      "occlusionTexture": {
        "index": 3,
        "strength": 0.17523862929867975
      },
      "pbrMetallicRoughness": {
        "baseColorTexture": {
          "index": 2
        },
        "metallicFactor": 0.0,
        "metallicRoughnessTexture": {
          "index": 3
        },
        "roughnessFactor": 0.6
      }
    }
  ],
  "meshes": [
    {
      "name": "Weapon1_Weapon_Mat_0",
      "primitives": [
        {
          "attributes": {
            "NORMAL": 1,
            "POSITION": 0,
            "TEXCOORD_0": 2
          },
          "indices": 3,
          "material": 0,
          "mode": 4
        }
      ]
    },
    {
      "name": "LP1_Naga_Mat_0",
      "primitives": [
        {
          "attributes": {
            "NORMAL": 5,
            "POSITION": 4,
            "TANGENT": 6,
            "TEXCOORD_0": 7
          },
          "indices": 8,
          "material": 1,
          "mode": 4
        }
      ]
    }
  ],
  "nodes": [
    {
      "children": [
        1
      ],
      "matrix": [
        1.0,
        0.0,
        0.0,
        0.0,
        0.0,
        2.220446049250313e-16,
        -1.0,
        0.0,
        0.0,
        1.0,
        2.220446049250313e-16,
        0.0,
        0.0,
        0.0,
        0.0,
        1.0
      ],
      "name": "Sketchfab_model"
    },
    {
      "children": [
        2
      ],
      "matrix": [
        0.009999999776482582,
        0.0,
        0.0,
        0.0,
        0.0,
        0.0,
        0.009999999776482582,
        0.0,
        0.0,
        -0.009999999776482582,
        0.0,
        0.0,
        0.0,
        0.0,
        0.0,
        1.0
      ],
      "name": "da6114b1be964dd9a186819734fca616.fbx"
    },
    {
      "children": [
        3,
        5
      ],
      "name": "RootNode"
    },
    {
      "children": [
        4
      ],
      "name": "Weapon1"
    },
    {
      "mesh": 0,
      "name": "Weapon1_Weapon_Mat_0"
    },
    {
      "children": [
        6
      ],
      "matrix": [
        1.0,
        0.0,
        0.0,
        0.0,
        0.0,
        1.0,
        0.0,
        0.0,
        0.0,
        0.0,
        1.0,
        0.0,
        -9.5367431640625e-07,
        0.0,
        0.0,
        1.0
      ],
      "name": "LP1"
    },
    {
      "mesh": 1,
      "name": "LP1_Naga_Mat_0"
    }
  ],
  "samplers": [
    {
      "magFilter": 9729,
      "minFilter": 9987,
      "wrapS": 10497,
      "wrapT": 10497
    }
  ],
  "scene": 0,
  "scenes": [
    {
      "name": "Sketchfab_Scene",
      "nodes": [
        0
      ]
    }
  ],
  "textures": [
    {
      "sampler": 0,
      "source": 0
    },
    {
      "sampler": 0,
      "source": 1
    },
    {
      "sampler": 0,
      "source": 2
    },
    {
      "sampler": 0,
      "source": 3
    },
    {
      "sampler": 0,
      "source": 4
    }
  ]
}
